#!OML:ASF H:\Terrain\Patient Classification 1\Animal2\Wednesday\Animal2.ASF
:FULLY-SPECIFIED
:DEGREES
1
root 12.5711 17.8021 -7.53838 25.0679 1.94693 1.65783
lowerback 16.6882 -2.75 -1.76904
upperback -10.9978 -4.24719 0.560823
thorax -22.0648 -1.46957 3.16189
lowerneck 3.93057 7.10943 13.3022
upperneck -37.4815 5.36064 -22.9201
head -11.3508 3.38446 -12.1767
rclavicle -3.96327e-014 -1.80894e-014
rhumerus 1.1424 12.1387 -74.3991
rradius 92.9971
rwrist -2.64468
rhand -16.9888 5.14499
rfingers 7.12502
rthumb 9.24616 -24.6323
lclavicle -3.96327e-014 -1.80894e-014
lhumerus 31.9467 5.11121 58.0817
lradius 97.7547
lwrist 57.3232
lhand -43.4958 20.1413
lfingers 7.12502
lthumb -16.3357 49.4733
rfemur -43.8206 -3.45662 16.161
rtibia 44.1232
rfoot -19.5296 -0.395954
rtoes 24.6887
lfemur -44.5721 0.327078 -11.8987
ltibia 38.5929
lfoot -10.9619 -1.68823
ltoes -38.6652
2
root 12.6133 17.8048 -7.54774 25.3524 1.82841 1.74909
lowerback 16.672 -2.815 -1.85228
upperback -10.8989 -4.35919 0.552638
thorax -21.907 -1.51251 3.23104
lowerneck 3.83867 7.12258 13.1832
upperneck -37.6561 5.39322 -22.7008
head -11.418 3.38257 -12.0791
rclavicle 3.93097e-014 6.55989e-015
rhumerus 0.799063 11.9284 -74.7328
rradius 93.3147
rwrist -2.68608
rhand -17.0075 5.25056
rfingers 7.12502
rthumb 9.2281 -24.5275
lclavicle 3.93097e-014 6.55989e-015
lhumerus 31.1709 4.66636 58.2333
lradius 97.8626
lwrist 57.0649
lhand -43.4851 20.1538
lfingers 7.12502
lthumb -16.3255 49.4866
rfemur -44.1392 -3.13208 15.7592
rtibia 44.0555
rfoot -19.427 -0.785573
rtoes 24.5711
lfemur -44.8382 0.501967 -12.2709
ltibia 38.407
lfoot -10.7139 -1.70564
ltoes -39.2283
3
root 12.6527 17.8148 -7.55526 25.5898 1.86254 1.87337
lowerback 16.7714 -2.8594 -1.87998
upperback -10.7906 -4.4407 0.485489
thorax -21.8252 -1.5537 3.19773
lowerneck 3.59717 7.06036 13.4409
upperneck -37.5804 5.29044 -22.8051
head -11.3398 3.30651 -12.1422
rclavicle -4.96962e-016 1.23246e-014
rhumerus 0.403563 11.5671 -75.0168
rradius 93.6829
rwrist -2.80214
rhand -17.1661 5.03994
rfingers 7.12502
rthumb 9.07508 -24.7448
lclavicle -4.96962e-016 1.23246e-014
lhumerus 30.4378 4.06526 58.5009
lradius 97.9906
lwrist 57.1787
lhand -43.5186 20.1684
lfingers 7.12502
lthumb -16.3577 49.4986
rfemur -44.2668 -2.94396 15.408
rtibia 43.8822
rfoot -19.3584 -1.26354
rtoes 23.7554
lfemur -45.0921 0.63565 -12.652
ltibia 38.2945
lfoot -10.7036 -1.9112
ltoes -38.2107
4
root 12.6944 17.819 -7.56161 25.8957 1.9323 1.95606
lowerback 16.8128 -2.90203 -1.87178
upperback -10.7259 -4.49488 0.495291
thorax -21.7617 -1.57967 3.22188
lowerneck 3.37961 6.99965 13.5812
upperneck -37.4528 5.18291 -22.8867
head -11.2547 3.24275 -12.167
rclavicle 9.83984e-015 4.37326e-015
rhumerus 0.111696 11.2924 -75.1317
rradius 93.8996
rwrist -2.71447
rhand -17.3195 5.06252
rfingers 7.12502
rthumb 8.92706 -24.7286
lclavicle 9.83984e-015 4.37326e-015
lhumerus 29.6539 3.47066 58.9109
lradius 98.0484
lwrist 57.2988
lhand -43.5106 19.9496
lfingers 7.12502
lthumb -16.3501 49.2804
rfemur -44.487 -2.86362 15.1397
rtibia 43.7219
rfoot -19.3846 -1.6622
rtoes 23.0681
lfemur -45.4569 0.76026 -12.9808
ltibia 38.209
lfoot -10.7047 -2.38126
ltoes -34.3963
5
root 12.7367 17.82 -7.57424 26.1984 2.05728 1.94804
lowerback 16.8692 -2.97729 -1.64532
upperback -10.6639 -4.54538 0.455711
thorax -21.7361 -1.64086 3.0661
lowerneck 3.41857 6.90421 13.6635
upperneck -37.521 5.07738 -22.8031
head -11.3209 3.17196 -12.1638
rclavicle 2.10712e-014 1.27222e-014
rhumerus -0.142871 10.9051 -75.3407
rradius 94.0264
rwrist -2.59284
rhand -17.3444 5.34291
rfingers 7.12502
rthumb 8.903 -24.4493
lclavicle 2.10712e-014 1.27222e-014
lhumerus 28.9658 2.83709 59.3555
lradius 98.0975
lwrist 57.4423
lhand -43.2682 20.0781
lfingers 7.12502
lthumb -16.1166 49.428
rfemur -44.7305 -2.69387 14.9362
rtibia 43.5445
rfoot -19.3982 -1.99388
rtoes 23.6126
lfemur -45.8769 0.931973 -13.234
ltibia 38.1449
lfoot -10.4801 -2.95558
ltoes -30.1848
6
root 12.7747 17.8245 -7.59559 26.5 2.16619 2.01049
lowerback 17.0177 -3.03293 -1.5036
upperback -10.6152 -4.604 0.366078
thorax -21.7866 -1.69435 2.91129
lowerneck 3.65064 6.77286 13.7819
upperneck -37.6765 4.93879 -22.7337
head -11.4712 3.08626 -12.2058
rclavicle 2.78299e-015 -1.15295e-014
rhumerus -0.570571 10.5031 -75.6273
rradius 94.3048
rwrist -2.69427
rhand -17.3832 5.22791
rfingers 7.12502
rthumb 8.86556 -24.5659
lclavicle 2.78299e-015 -1.15295e-014
lhumerus 28.2765 2.1489 59.8404
lradius 98.141
lwrist 57.6056
lhand -42.8855 20.4932
lfingers 7.12502
lthumb -15.7481 49.8725
rfemur -44.9613 -2.39445 14.6238
rtibia 43.3474
rfoot -19.3254 -2.48333
rtoes 24.2015
lfemur -46.3201 1.04938 -13.5407
ltibia 38.0892
lfoot -10.2544 -3.18728
ltoes -29.982
7
root 12.8119 17.8294 -7.61275 26.8723 1.99009 2.1502
lowerback 17.072 -2.94444 -1.67557
upperback -10.6122 -4.54266 0.297565
thorax -21.8127 -1.64852 2.91209
lowerneck 4.15502 6.60104 13.8366
upperneck -37.9874 4.72879 -22.7415
head -11.7646 2.98708 -12.3217
rclavicle 5.36719e-015 1.98785e-015
rhumerus -1.20825 10.1104 -75.7338
rradius 94.6972
rwrist -2.70204
rhand -17.3212 4.95973
rfingers 7.12502
rthumb 8.92538 -24.8315
lclavicle 5.36719e-015 1.98785e-015
lhumerus 27.3448 1.42496 60.5015
lradius 98.2138
lwrist 57.7052
lhand -42.6245 20.8999
lfingers 7.12502
lthumb -15.4967 50.2988
rfemur -45.29 -1.96233 14.1131
rtibia 43.1174
rfoot -19.2292 -2.81491
rtoes 24.8434
lfemur -46.7749 1.22005 -13.9625
ltibia 38.027
lfoot -10.1329 -3.18094
ltoes -30.332
